<?xml version="1.0" encoding="UTF-8"?>
<svg id="Layer_1" data-name="Layer 1" xmlns="http://www.w3.org/2000/svg" viewBox="0 0 158.77 46.7">
  <defs>
    <style>
      .cls-1, .cls-2 {
        fill: silver;
      }

      .cls-2 {
        font-family: Poppins-Medium, Poppins;
        font-size: 26.27px;
      }
    </style>
  </defs>
  <g>
    <path class="cls-1" d="M19.11,.02c.83,.4,1.67,.03,2.49,0,10.71-.39,20.62,7.14,22.75,17.31,2.37,11.34-3.26,22.05-13.73,26.1-10.86,4.2-22.82-.35-28.22-10.71-.22-.41-.19-1.04-.81-1.19l-1.6-5.61c.45-.45,.08-.97,.06-1.43C-.43,15.24,3.23,8.16,10.99,3.16c.83-.53,1.89-.67,2.51-1.54L19.11,.02Zm8.61,22.16c1.65-.85,2.97-1.79,3.44-3.52,.76-2.81-.87-5.16-4.18-5.76-1.24-.23-1.62-.73-1.48-1.86,.03-.25-.01-.51,.03-.76,.15-.99-.2-1.27-1.23-1.29-1.12-.03-1.29,.44-1.21,1.33,.03,.36,0,.72,.02,1.07,.05,.7,.11,1.26-.96,1.24-.96,0-1.11-.42-1.08-1.19,.02-.51-.05-1.03,0-1.53,.1-1.11-.72-.76-1.24-.79-.56-.03-1.16-.21-1.2,.84-.1,2.64-.18,2.63-2.93,2.66-.2,0-.41,.06-.61,.02-1.28-.22-1.17,.69-1.08,1.43,.08,.7-.52,1.95,1.07,1.71,1.14-.17,1.32,.34,1.31,1.37-.03,3.98,0,7.97,.12,11.95,.03,1.15-.26,1.56-1.41,1.44-.46-.05-1.13-.36-1.3,.58-.38,2,.01,2.54,2.01,2.54,.31,0,.61,0,.92-.01,2.08-.02,2.09-.02,2.09,2.05,0,.88,0,1.48,1.24,1.47,1.27,0,1.29-.6,1.22-1.49-.03-.36,.04-.72-.02-1.07-.16-.91,.37-1,1.07-1.02,.69-.02,1.07,.16,.97,.95-.06,.45,.04,.92,0,1.38-.07,.81,.17,1.14,1.07,1.14,1,0,1.6-.17,1.36-1.31-.35-1.68,.33-2.34,2.01-2.72,2.71-.6,4.25-2.55,4.47-5.01,.26-2.91-.9-4.46-4.48-5.84Z"/>
    <path class="cls-1" d="M24.67,30.02c-.68,.02-1.7,.05-2.71,.07-.6,.01-.77-.29-.75-.87,.03-1.22,.03-2.45-.02-3.67-.03-.68,.08-1.07,.9-.99,.86,.08,1.74-.02,2.6,.08,1.6,.18,2.48,1.12,2.53,2.56,.05,1.33-.77,2.34-2.54,2.81Z"/>
    <path class="cls-1" d="M24.45,20.86c-.25,.05-.4,.09-.55,.12-2.57,.42-2.74,.28-2.75-2.29-.02-2.8,.21-2.99,2.98-2.51,1.22,.21,2.14,.73,2.18,2.14,.05,1.38-.7,2.18-1.86,2.55Z"/>
  </g>
  <text class="cls-2" transform="translate(53.7 31.41)"><tspan x="0" y="0">BITCOIN</tspan></text>
</svg>