<?xml version="1.0" encoding="UTF-8"?>
<svg id="Layer_1" data-name="Layer 1" xmlns="http://www.w3.org/2000/svg" viewBox="0 0 133.67 46.44">
  <defs>
    <style>
      .cls-1, .cls-2 {
        fill: silver;
      }

      .cls-2 {
        font-family: Poppins-Medium, Poppins;
        font-size: 26.27px;
      }
    </style>
  </defs>
  <text class="cls-2" transform="translate(53.45 31.16)"><tspan x="0" y="0">RIPPLE</tspan></text>
  <path class="cls-1" d="M25.19,0c.5,.61,1.26,.45,1.9,.59,10.62,2.38,17.77,11.9,17.27,23.05-.46,10.29-8.69,19.27-18.91,20.63C13.47,45.87,2.38,37.95,.35,26.34-1.76,14.21,5.82,3.07,17.93,.47c.49-.11,1.14,.12,1.5-.47h5.77ZM13.99,16.32c-3.16,0-5.74,2.54-5.73,5.65,.01,3.12,2.59,5.67,5.73,5.65,2.02-.01,3.54-.97,4.74-2.56,.87-1.16,2.14-1.44,3.2-.83,1.06,.62,1.39,1.84,.85,3.18-.15,.37-.35,.73-.48,1.11-.78,2.28-.01,4.81,1.86,6.25,1.96,1.49,4.54,1.64,6.53,.37,2.07-1.32,3.06-3.79,2.44-6.19-.7-2.68-2.58-3.96-5.23-4.33-1.36-.19-2.33-1.21-2.33-2.36,0-1.18,.95-2.13,2.35-2.34,.5-.07,1.01-.11,1.5-.23,4-1.02,5.57-5.9,2.94-9.07-1.81-2.18-4.8-2.7-7.25-1.27-2.47,1.44-3.39,4.25-2.33,7.1,.65,1.76,.41,2.96-.74,3.61-1.16,.65-2.31,.2-3.41-1.3-1.14-1.56-2.66-2.45-4.63-2.44Z"/>
</svg>