<?xml version="1.0" encoding="UTF-8"?>
<svg id="Layer_1" data-name="Layer 1" xmlns="http://www.w3.org/2000/svg" viewBox="0 0 152.15 47.56">
  <defs>
    <style>
      .cls-1, .cls-2 {
        fill: silver;
      }

      .cls-2 {
        font-family: Poppins-Medium, Poppins;
        font-size: 26.27px;
        isolation: isolate;
      }
    </style>
  </defs>
  <path class="cls-1" d="M24.6,44.7h-5c-.1-.3-.3-.2-.5-.2C9.3,42.6,3.1,36.8,.5,27.1c-.2-.7-.1-1.4-.5-2v-5.6c.3-.1,.2-.3,.2-.5,.4-2.6,1.1-5.1,2.5-7.3C6.5,5.2,11.8,1.1,19.5,.3c.1,0,.2-.2,.3-.3h5.2c1.2,.3,2.5,.5,3.7,.9,7.9,2.5,13.1,7.8,15.5,15.8,.3,1.1,.3,2.3,.8,3.3v.2c-.3,.3,0,.5,0,.8v2.8c0,.3-.3,.5,0,.8v.2c-.3,.1-.2,.3-.2,.5-1.5,9.1-6.6,15.2-15.3,18.4-1.7,.5-3.3,.7-4.9,1Zm5.3-11.7c-.6,.2-1-.1-1.4-.5-.3-.3-.5-.6-.8-.8-.5-.4-.6-.7-.3-1.3,1.6-3.7,.8-7.6-2.2-10.4-.5-.5-.5-.7,0-1.2,1.8-1.9,3.6-3.9,5.4-5.9,.4-.5,.8-.7,1.5-.5,.6,.1,1.2-.1,1.7-.4,1.4-.8,2.1-2.5,1.4-4-.7-1.6-2.4-2.3-4-1.8s-2.5,2.2-2,3.8c.1,.5,.3,.9-.2,1.3-2,2.1-3.9,4.2-5.8,6.3-.3,.3-.5,.5-.9,.4q-2.1-.3-2.1-2.4v-.5c-.1-.9,0-1.6,.8-2.2,1.2-1,1-2.7,0-3.8-1.1-1.1-2.8-1.1-3.9,0-1.1,1.1-1.2,2.9,0,3.8,.8,.6,.9,1.3,.8,2.1v1.6c0,.6-.1,.9-.8,1.1-6.5,1.4-9.3,8.9-5.5,14.3,2.3,3.1,5.5,4.2,9.2,3.7,1.6-.2,3.2-1.1,4.4-2.3,.2-.2,.3-.5,.6-.3,.6,.2,1.7,1.8,1.7,2.5-.1,1.5,1.3,3.2,2.5,3.2,1.5,0,3.1-1.5,3-3,0-1.7-1.3-2.9-3.1-2.8Z"/>
  <text class="cls-2" transform="translate(54 32.27)"><tspan x="0" y="0">BITCON</tspan></text>
</svg>