<?xml version="1.0" encoding="UTF-8"?>
<svg id="Layer_1" data-name="Layer 1" xmlns="http://www.w3.org/2000/svg" viewBox="0 0 185.13 46.36">
  <defs>
    <style>
      .cls-1, .cls-2 {
        fill: silver;
      }

      .cls-2 {
        font-family: Poppins-Medium, Poppins;
        font-size: 26.27px;
      }
    </style>
  </defs>
  <text class="cls-2" transform="translate(53.45 31.07)"><tspan x="0" y="0">CARDANO</tspan></text>
  <path class="cls-1" d="M22,44.31C9.75,44.24-.05,34.31,0,22.03,.05,9.78,10.12-.09,22.47,0c12.23,.09,21.97,10.12,21.92,22.56-.05,12.04-10.13,21.83-22.39,21.76Zm-2.05-24.36c1.04-.12,1.67-.74,1.67-1.76,0-1.04-.67-1.66-1.71-1.73-.96-.07-1.88,.88-1.77,1.83,.11,1.03,.73,1.6,1.81,1.66Zm4.36-.02c1.03,.02,1.87-.76,1.92-1.67,.06-.95-.82-1.87-1.79-1.81-1.05,.07-1.69,.7-1.7,1.73,0,1.04,.67,1.61,1.57,1.74Zm2.52,.47c-1.04,.15-1.77,.63-1.76,1.71,0,1.12,.66,1.81,1.79,1.76,1.03-.04,1.69-.7,1.66-1.75-.03-1.03-.68-1.61-1.68-1.72Zm-2.25,7.46c.95-.04,1.73-.82,1.67-1.76-.07-1.05-.68-1.65-1.73-1.69-.98-.04-1.89,.9-1.75,1.83,.15,.99,.72,1.63,1.82,1.61Zm-4.52,0c1.01-.09,1.61-.73,1.59-1.77-.03-1.06-.71-1.66-1.79-1.63-1.09,.03-1.72,.72-1.67,1.75,.05,1.02,.68,1.65,1.87,1.65Zm-2.45-7.39c-1.09,.1-1.72,.64-1.7,1.73,.02,1.07,.63,1.71,1.71,1.68,1.05-.03,1.68-.63,1.68-1.72,0-1.11-.67-1.6-1.69-1.69Zm5.77-7.2c-.1-.6-.39-1.12-1.12-1.14-.72-.02-1.14,.39-1.17,1.1-.03,.72,.37,1.16,1.08,1.2,.72,.04,1.08-.42,1.21-1.16Zm6.53,12.17c-.61,.08-1.12,.4-1.17,1.08-.06,.76,.41,1.24,1.16,1.26,.68,.02,1.13-.43,1.15-1.11,.03-.69-.43-1.06-1.14-1.22Zm-14.26,1.2c-.06-.72-.44-1.16-1.15-1.18-.72-.02-1.15,.46-1.17,1.13-.01,.68,.43,1.16,1.13,1.17,.69,0,1.1-.42,1.18-1.12Zm.02-8.93c-.06-.71-.44-1.1-1.16-1.12-.75-.02-1.13,.45-1.15,1.11-.01,.69,.41,1.14,1.13,1.13,.69,0,1.1-.41,1.17-1.13Zm15.41,0c-.08-.66-.43-1.1-1.16-1.1-.72,0-1.15,.44-1.16,1.12-.01,.7,.47,1.15,1.15,1.15,.67,0,1.11-.42,1.17-1.17Zm-8.96,12.21c-.66,.07-1.07,.44-1.04,1.16,.03,.71,.43,1.12,1.14,1.1,.71-.02,1.11-.44,1.09-1.15-.02-.71-.43-1.08-1.19-1.1Zm-10.13-7.73c-.07-.56-.36-.96-.94-.99-.59-.04-.97,.32-1,.89-.04,.58,.33,.94,.91,.99,.61,.05,.88-.36,1.03-.88Zm22.39,0c-.11-.53-.35-.98-.96-.96-.56,.01-.97,.37-.98,.94,0,.56,.36,.93,.95,.94,.59,.01,.9-.34,.99-.92Zm-7.52,9.59c-.02,.66,.32,1,.89,1.02,.56,.02,.96-.28,.97-.89,.01-.58-.32-.96-.89-.99-.58-.03-.91,.32-.97,.86Zm.92-18.35c.53-.07,.95-.3,.95-.92,0-.58-.32-.96-.9-.98-.58-.02-.92,.33-.96,.91-.04,.62,.34,.88,.9,.99Zm-10.25,18.41c-.03-.5-.3-.89-.89-.93-.58-.04-.94,.28-.98,.88-.04,.61,.32,.94,.87,.99,.58,.05,.92-.27,.99-.94Zm-.96-18.44c.59-.02,.96-.3,.97-.9,0-.57-.3-.96-.89-.98-.59-.02-.93,.31-.97,.9-.04,.62,.36,.87,.89,.99Zm17.28,2.6c.48,0,.76-.29,.77-.72,0-.36-.26-.66-.66-.68-.48-.03-.74,.26-.74,.72,0,.39,.22,.64,.63,.68Zm-23.46-1.21c-.4,.03-.67,.24-.7,.63-.03,.46,.26,.77,.71,.76,.44-.01,.73-.3,.69-.78-.03-.41-.32-.58-.71-.61Zm12.55-6.23c-.08-.41-.32-.7-.8-.65-.39,.04-.66,.32-.63,.71,.03,.44,.29,.75,.79,.7,.4-.04,.6-.32,.64-.76Zm11.78,20.32c-.05-.4-.26-.67-.65-.71-.47-.04-.78,.24-.79,.7,0,.36,.24,.67,.64,.71,.48,.04,.71-.27,.8-.7Zm-12.37,6.18c-.4,0-.71,.16-.75,.57-.05,.48,.21,.78,.7,.78,.41,0,.66-.22,.67-.65,0-.42-.2-.66-.62-.7Zm-11.92-6.69c-.34,.05-.57,.25-.58,.66,0,.41,.2,.65,.61,.67,.49,.02,.74-.24,.72-.71-.02-.39-.29-.6-.74-.61Z"/>
</svg>