<?xml version="1.0" encoding="UTF-8"?>
<svg id="Layer_1" data-name="Layer 1" xmlns="http://www.w3.org/2000/svg" viewBox="0 0 124.76 46.34">
  <defs>
    <style>
      .cls-1, .cls-2 {
        fill: silver;
      }

      .cls-2 {
        font-family: Poppins-Medium, Poppins;
        font-size: 26.27px;
      }
    </style>
  </defs>
  <text class="cls-2" transform="translate(53.45 31.06)"><tspan x="0" y="0">DASH</tspan></text>
  <path class="cls-1" d="M0,19.16c.67-.81,.57-1.86,.82-2.8C3.62,5.85,13.5-.89,24.7,.1c10.24,.91,18.72,9.58,19.61,20.06,.98,11.51-7.07,22.12-18.06,23.82C14.04,45.87,3.16,38.6,.54,26.82c-.12-.54,.03-1.21-.54-1.6v-6.06Zm7.31,10.58c7.28,0,14.24,.06,21.2-.04,1.94-.03,3.39-1.22,4.29-2.95,1.39-2.69,2.78-5.38,4.09-8.11,1.18-2.46,.14-4.07-2.57-4.08-5.6-.01-11.21,.12-16.81-.07-2.06-.07-3.09,.6-3.82,2.43-.46,1.15-.44,1.45,.88,1.43,4.44-.06,8.89,.02,13.33-.04,1.36-.02,1.44,.39,.86,1.46-.9,1.63-1.79,3.28-2.55,4.98-.42,.94-.98,1.21-1.96,1.19-4.59-.05-9.19-.03-13.78-.01-.52,0-1.12-.23-1.46,.47-.49,1.04-1.03,2.05-1.69,3.34Zm12.51-9.45c-2.92,0-5.55,.16-8.15-.05-2.13-.17-3.45,.45-4,2.54-.03,.1-.08,.19-.13,.27-.42,.66-.33,.97,.54,.97,3.02-.02,6.04-.02,9.06,0,.55,0,.94-.1,1.19-.67,.42-.96,.91-1.88,1.49-3.05Z"/>
</svg>