<?xml version="1.0" encoding="UTF-8"?>
<svg id="Layer_1" data-name="Layer 1" xmlns="http://www.w3.org/2000/svg" viewBox="0 0 185.97 46.41">
  <defs>
    <style>
      .cls-1, .cls-2 {
        fill: silver;
      }

      .cls-2 {
        font-family: Poppins-Medium, Poppins;
        font-size: 26.27px;
      }
    </style>
  </defs>
  <text class="cls-2" transform="translate(53.45 31.12)"><tspan x="0" y="0">ETHEREUM</tspan></text>
  <path class="cls-1" d="M22.19,44.41C9.88,44.4,.03,34.55,0,22.25-.03,9.79,9.94-.04,22.57,0c12.03,.04,21.85,10.12,21.82,22.4-.03,12.13-10.01,22.02-22.2,22.01ZM13.46,23.63c-.03-.07-.06-.15-.09-.22-.04,.02-.09,.05-.13,.07,.07,.06,.14,.11,.21,.17,.67,1.59,1.75,2.93,2.66,4.37,1.97,3.09,3.98,6.15,6.08,9.39,3.07-4.74,6.02-9.31,8.98-13.88-2.43,1.05-4.74,2.17-6.91,3.52-1.47,.91-2.64,.87-4.13,.02-2.16-1.24-4.26-2.66-6.67-3.43ZM22.19,7.05c-3.02,4.65-5.92,9.13-8.84,13.59-.52,.8,.1,.94,.57,1.2,2.48,1.35,4.98,2.66,7.44,4.03,.6,.33,1.06,.33,1.66-.01,2.46-1.38,4.94-2.74,7.45-4.03,.82-.42,.82-.76,.36-1.47-1.95-2.94-3.85-5.92-5.77-8.88-.92-1.42-1.85-2.85-2.88-4.43Z"/>
</svg>