<?xml version="1.0" encoding="UTF-8"?>
<svg id="Layer_1" data-name="Layer 1" xmlns="http://www.w3.org/2000/svg" viewBox="0 0 114.1 46.3">
  <defs>
    <style>
      .cls-1, .cls-2 {
        fill: silver;
      }

      .cls-2 {
        font-family: Poppins-Medium, Poppins;
        font-size: 26.27px;
      }
    </style>
  </defs>
  <text class="cls-2" transform="translate(53.45 31.01)"><tspan x="0" y="0">IOTA</tspan></text>
  <path class="cls-1" d="M0,19.29c.61-.84,.53-1.88,.78-2.83C3.74,5.4,14.22-1.43,25.74,.25c10.83,1.58,19.05,11.57,18.64,22.65-.4,10.94-9.15,20.32-19.75,21.2C12.81,45.09,2.86,37.82,.49,26.51c-.1-.49,.09-1.13-.49-1.47v-5.75Zm10.88,3.16c-.13-.76-.57-1.32-1.45-1.34-.88-.01-1.44,.5-1.48,1.36-.04,.96,.57,1.5,1.49,1.5,.88,0,1.31-.6,1.44-1.53ZM29.95,10.07c-.07-.89-.55-1.44-1.41-1.47-.94-.03-1.53,.57-1.51,1.49,.02,.82,.54,1.38,1.46,1.36,.9-.02,1.34-.54,1.46-1.37Zm1.06,22.58c-.07-.83-.55-1.39-1.39-1.45-.86-.06-1.43,.45-1.5,1.32-.08,.97,.47,1.53,1.4,1.55,.88,.03,1.33-.56,1.48-1.43Zm-5.63,1.68c-.07-.83-.54-1.33-1.33-1.37-.81-.03-1.32,.47-1.34,1.29-.02,.83,.45,1.32,1.28,1.35,.83,.02,1.25-.5,1.4-1.27ZM10.67,18.3c.76-.11,1.35-.47,1.39-1.3,.04-.83-.43-1.32-1.26-1.37-.84-.05-1.34,.42-1.39,1.24-.06,.84,.5,1.25,1.26,1.43Zm23.34-4.24c-.08-.85-.5-1.36-1.32-1.39-.83-.02-1.34,.51-1.36,1.3-.02,.79,.48,1.33,1.3,1.34,.82,.02,1.26-.49,1.38-1.25Zm-5.03-1.5c-.59,.05-1.08,.38-1.11,1.09-.03,.8,.51,1.21,1.23,1.23,.71,.02,1.11-.49,1.1-1.17,0-.69-.4-1.12-1.22-1.15Zm-1.74,18.72c-.05-.6-.35-1.1-1.08-1.13-.77-.03-1.27,.42-1.29,1.17-.02,.71,.52,1.11,1.17,1.14,.69,.04,1.1-.39,1.19-1.18ZM15.22,12.01c-.04-.65-.36-1.12-1.06-1.17-.78-.06-1.21,.4-1.22,1.16,0,.71,.46,1.13,1.12,1.14,.64,0,1.11-.38,1.17-1.13Zm21.26,7.38c-.08-.66-.43-1.15-1.11-1.18-.76-.04-1.21,.43-1.21,1.19,0,.7,.45,1.1,1.14,1.1,.7,0,1.05-.45,1.18-1.11Zm-23,.87c-.08-.65-.34-1.2-1.08-1.21-.75,0-1.25,.41-1.24,1.19,0,.71,.46,1.11,1.15,1.13,.73,.02,1.06-.45,1.18-1.12Zm4.47,14.77c.75-.02,1.21-.39,1.25-1.08,.04-.7-.42-1.17-1.09-1.21-.67-.04-1.14,.35-1.18,1.08-.05,.74,.39,1.08,1.03,1.21Zm3.27-1.62c.63-.12,1.08-.46,1.06-1.1-.02-.71-.46-1.14-1.18-1.06-.61,.07-1.04,.49-.97,1.14,.07,.6,.44,1,1.09,1.02Zm11.18-14.91c.62-.05,.98-.45,1.02-1.05,.05-.72-.41-1.11-1.09-1.11-.62,0-1.07,.41-1.08,1.01-.01,.66,.42,1.08,1.15,1.15Zm-3.6-.41c.62-.11,.99-.47,.93-1.12-.06-.63-.45-1.02-1.1-.96-.63,.05-1,.5-.96,1.12,.05,.62,.48,.95,1.12,.97Zm-5.43,10.25c-.62,.03-1.05,.3-1.06,.97-.01,.64,.35,1.04,.98,1.08,.66,.04,1.04-.41,1.07-1,.04-.6-.32-1.02-.99-1.06Zm-7.01-9.74c-.1-.5-.43-.88-1.1-.81-.63,.07-1.04,.46-.97,1.1,.07,.6,.47,1.01,1.12,.97,.66-.04,.94-.48,.94-1.25Zm-2.48-2.03c.65-.06,.98-.45,1-1.08,.02-.65-.35-1.06-1-1.05-.69,0-1.16,.4-1.12,1.12,.04,.62,.49,.94,1.11,1.02Zm17.36,2.77c-.46,.15-.91,.42-.85,1,.06,.6,.44,1.02,1.1,.92,.55-.08,.86-.49,.81-1.06-.05-.59-.46-.82-1.06-.87Zm-11.08,10.61c-.08-.57-.4-.92-.97-.93-.57,0-.95,.34-.97,.9-.02,.64,.39,1.02,1.02,1.01,.58-.02,.83-.45,.92-.98Zm-2.32-15.01c-.02-.59-.33-.95-.89-.99-.55-.03-.97,.25-1.02,.84-.05,.65,.35,1.05,.95,1.08,.55,.02,.87-.38,.96-.93Zm-1.62,17.59c.55-.13,.92-.44,.89-1.03-.02-.52-.39-.84-.89-.86-.58-.02-.96,.33-.97,.92,0,.6,.42,.87,.96,.97Zm2.33-15.25c-.51,.13-.88,.41-.84,1.02,.04,.53,.42,.81,.9,.82,.57,.01,.95-.36,.95-.93,0-.58-.42-.86-1.01-.91Zm-1.62-6.69c-.53,.11-.94,.4-.86,1,.07,.55,.45,.92,1.03,.87,.5-.05,.8-.4,.79-.93,0-.6-.35-.89-.95-.94Zm11.59,9.58c-.05-.5-.33-.86-.92-.88-.52-.01-.86,.3-.92,.78-.07,.56,.26,.95,.83,1.01,.59,.07,.9-.29,1.01-.92Zm-7.36,7.57c.59-.09,.93-.43,.89-1.01-.03-.53-.38-.8-.91-.8-.54,0-.86,.29-.89,.82-.04,.62,.35,.89,.91,1Zm8.48-5.7c-.5,.03-.83,.31-.85,.82-.02,.51,.3,.86,.81,.88,.51,.02,.85-.29,.88-.81,.03-.54-.33-.78-.84-.89Zm4.55-.87c-.55,.14-.96,.4-.9,1.01,.05,.59,.45,.89,1.02,.84,.5-.05,.8-.39,.79-.91,0-.6-.36-.88-.91-.94Zm-14.29-6.92c-.49,.07-.81,.36-.79,.87,.02,.5,.35,.84,.86,.81,.48-.03,.85-.33,.84-.85-.01-.53-.41-.74-.9-.83Zm-1.25,12.96c-.1-.55-.41-.86-.94-.81-.43,.04-.77,.28-.74,.79,.03,.51,.27,.87,.84,.86,.55,0,.78-.37,.85-.84Zm7.46-3.71c.36-.13,.7-.37,.66-.84-.04-.54-.42-.79-.95-.71-.48,.07-.7,.4-.63,.86,.07,.46,.41,.67,.92,.69Zm-5.61-11.71c-.03-.57-.39-.81-.88-.83-.46-.01-.76,.31-.8,.74-.05,.51,.24,.87,.77,.9,.52,.02,.79-.33,.9-.81Zm-5.55,16.55c-.41,.06-.75,.3-.71,.84,.03,.44,.31,.75,.75,.78,.52,.03,.87-.29,.88-.79,.01-.5-.29-.82-.93-.83Zm5.61-4.15c0-.47-.25-.78-.69-.83-.44-.05-.78,.2-.84,.66-.06,.53,.25,.89,.76,.91,.43,.02,.73-.27,.78-.75Zm11.25,.17c.12,.51,.44,.75,.95,.7,.45-.05,.72-.35,.71-.79,0-.52-.34-.81-.86-.78-.53,.03-.77,.35-.8,.87Zm-9.44-6c-.04-.52-.35-.79-.78-.79-.43,0-.76,.26-.77,.75,0,.54,.32,.86,.84,.83,.45-.03,.67-.37,.71-.79Zm.52-5.72c-.08-.49-.37-.71-.83-.69-.4,.02-.63,.27-.63,.67,0,.45,.26,.79,.71,.76,.4-.03,.73-.29,.74-.75Zm-8.34,13.13c-.47,.08-.71,.34-.68,.81,.03,.41,.28,.62,.68,.63,.46,0,.76-.27,.76-.72,0-.46-.33-.67-.76-.72Zm2.67-.5c.44-.11,.68-.38,.62-.86-.06-.42-.34-.61-.74-.58-.4,.03-.67,.31-.67,.69,0,.45,.3,.72,.79,.75Zm10.42,.23c.35-.07,.66-.25,.7-.65,.05-.48-.25-.75-.71-.79-.4-.03-.68,.2-.72,.61-.05,.49,.26,.72,.73,.83Zm-5.08-10.37c-.44,.06-.75,.31-.73,.76,.02,.43,.3,.72,.78,.69,.39-.03,.64-.25,.66-.65,.03-.48-.28-.69-.71-.8Zm8.82,10.77c-.15-.33-.38-.62-.84-.59-.41,.02-.62,.27-.63,.66-.02,.47,.27,.76,.71,.75,.44,0,.69-.32,.76-.83Zm-7.26-12.58c-.41,.1-.62,.33-.56,.75,.05,.35,.31,.51,.63,.48,.32-.03,.57-.22,.57-.57,0-.4-.25-.62-.64-.66Zm-5.13,8.78c.31,0,.56-.17,.61-.51,.06-.43-.2-.66-.61-.65-.32,0-.56,.21-.56,.56,0,.35,.2,.54,.57,.6Z"/>
</svg>