<?xml version="1.0" encoding="UTF-8"?>
<svg id="Layer_1" data-name="Layer 1" xmlns="http://www.w3.org/2000/svg" viewBox="0 0 109.32 46.39">
  <defs>
    <style>
      .cls-1, .cls-2 {
        fill: silver;
      }

      .cls-2 {
        font-family: Poppins-Medium, Poppins;
        font-size: 26.27px;
      }
    </style>
  </defs>
  <text class="cls-2" transform="translate(53.45 31.1)"><tspan x="0" y="0">NEM</tspan></text>
  <g>
    <path class="cls-1" d="M0,22.14C.02,9.83,9.86,0,22.15,0c12.43,0,22.28,9.91,22.24,22.38-.04,12.12-10.02,22.03-22.18,22C9.82,44.34-.02,34.49,0,22.14ZM22.03,10.51c-3.29,.06-6.7,.39-10.03,1.3-1.89,.52-2.47,1.52-1.95,3.37,1.9,6.68,5.28,12.51,10.08,17.53,1.46,1.53,2.66,1.52,4.13-.01,4.77-4.97,8.11-10.78,10.04-17.39,.59-2.01-.04-3.05-2.08-3.56-3.3-.83-6.65-1.19-10.2-1.23Z"/>
    <path class="cls-1" d="M25.21,11.9c-2.97,1.18-3.93,3.52-4.15,6.44-.18,2.39-3.62,3.9-5.97,2.66-2.75-1.45-3.49-4.14-4.06-6.9-.12-.57,.31-.96,.84-1.1,4.36-1.11,8.78-1.67,13.34-1.1Z"/>
    <path class="cls-1" d="M14.15,21.51c2.13,1.56,4.47,1.8,6.66,.43,2.61-1.63,6.22,1.23,5.99,4.13-.22,2.84-2.12,4.59-4.01,6.34-.5,.46-1.12,.19-1.61-.31-2.98-3.06-5.49-6.44-7.3-10.32,.09-.09,.17-.18,.26-.28Z"/>
    <path class="cls-1" d="M27.74,26.51c.25-3.01-1-5.16-3.52-6.84-2.21-1.47-1.53-5.4,1.01-6.73,2.53-1.33,5.02-.6,7.49,.17,.69,.22,.73,.86,.54,1.52-1.22,4.25-2.92,8.26-5.54,11.85l.02,.03Z"/>
    <path class="cls-1" d="M13.89,21.78c-.12-.13-.24-.25-.37-.38,.24-.17,.44-.11,.62,.1-.09,.09-.17,.18-.26,.28Z"/>
    <path class="cls-1" d="M27.72,26.48c-.06,.06-.12,.11-.18,.17-.02-.18,.03-.25,.2-.14,0,0-.02-.03-.02-.03Z"/>
  </g>
</svg>