<?xml version="1.0" encoding="UTF-8"?>
<svg id="Layer_1" data-name="Layer 1" xmlns="http://www.w3.org/2000/svg" viewBox="0 0 106.74 46.36">
  <defs>
    <style>
      .cls-1, .cls-2 {
        fill: silver;
      }

      .cls-2 {
        font-family: Poppins-Medium, Poppins;
        font-size: 26.27px;
      }
    </style>
  </defs>
  <text class="cls-2" transform="translate(53.45 31.07)"><tspan x="0" y="0">NEO</tspan></text>
  <path class="cls-1" d="M22.13,0c12.27-.03,22.24,9.82,22.26,22,.02,12.35-9.8,22.27-22.11,22.31C9.99,44.35,0,34.41,0,22.15,0,9.92,9.88,.03,22.13,0Zm-2.31,37.02c.09-.3,.17-.44,.17-.57,0-5.05,0-10.09,.02-15.14,0-.49-.09-.87-.53-1.16-2.53-1.62-5.06-3.25-7.81-5.03,0,5.55,0,10.83,0,16.1,0,.33,.11,.59,.39,.77,2.57,1.66,5.13,3.32,7.77,5.02ZM11.61,14.05c2.11,1.36,4.04,2.4,5.72,3.75,1.85,1.49,3.48,1.51,5.57,.47,3.13-1.55,6.43-2.76,9.9-4.22-2.12-1.38-4.11-2.49-5.87-3.88-1.64-1.29-3.04-1.37-4.93-.47-3.31,1.58-6.76,2.85-10.39,4.34Zm21.22,9.03c0-2.37-.02-4.74,0-7.12,0-.74-.14-1.03-.94-.68-2.22,.97-4.44,1.91-6.69,2.82-.62,.25-.82,.61-.81,1.25,.03,1.87,.04,3.74,0,5.6-.01,.63,.2,1.01,.73,1.35,2.22,1.4,4.43,2.82,6.6,4.28,1.01,.68,1.12,.27,1.1-.69-.04-2.27-.01-4.54,0-6.81Z"/>
</svg>