<?xml version="1.0" encoding="UTF-8"?>
<svg id="Layer_1" data-name="Layer 1" xmlns="http://www.w3.org/2000/svg" viewBox="0 0 130.23 46.4">
  <defs>
    <style>
      .cls-1, .cls-2 {
        fill: silver;
      }

      .cls-2 {
        font-family: Poppins-Medium, Poppins;
        font-size: 26.27px;
      }
    </style>
  </defs>
  <g>
    <path class="cls-1" d="M22.14,44.4C9.87,44.37-.04,34.42,0,22.17,.05,9.82,9.96-.02,22.34,0c12.21,.02,22.12,10.04,22.05,22.31-.07,12.31-9.95,22.12-22.25,22.09ZM27.92,9.66c-.06-.28-.3-.33-.51-.42-.4-.43-.92-.72-1.08-1.39-.11-.47-.54-.58-1.1-.42-2.63,.73-5.27,.75-7.9-.02-.48-.14-.96-.06-1.03,.3-.24,1.21-1.48,1.42-2.06,2.26-.33,.05-.59,.2-.69,.55-.89,.22-1.47,.9-2.16,1.42-.17,.15-.34,.29-.5,.44-.69,.14-1.75-.39-1.76,.98-.02,2.73-.82,5.2-2.42,7.41-.37,.51-.43,.94,.09,1.28,.4,.27,.65,.58,.8,1.04,.54,1.73,1.14,3.44,1.65,5.18,.53,1.81,.58,1.92,2.28,2.65,.33,.51,.85,.78,1.35,1.06,.23,.21,.43,.45,.78,.44,.38,.67,1.07,.97,1.69,1.34,.14,.07,.27,.14,.41,.2,.45,.54,.3,1.74,1.53,1.42,2.64-.68,5.28-.65,7.92-.02,.43,.1,.95,.14,1.05-.26,.24-1.02,1.22-1.26,1.77-1.94,.42-.3,.84-.6,1.26-.9l2.11-1.52c.88-.83,1.66-.65,2.54,.09,.74,.63,1.63,1.09,2.45,1.62,.34,.37,.22,.85,.32,1.27,.19,.76,.75,1.06,1.49,.91,.68-.14,1.02-.63,.95-1.33-.08-.78-.58-1.15-1.33-1.14-.43,0-.83,.43-1.29,.12-.97-.71-1.94-1.43-2.91-2.14-.33-.24-.78-.47-.59-.93,.99-2.37,1.09-5.1,2.81-7.18,.41-.49,.26-.84-.07-1.32-1.52-2.2-2.31-4.65-2.36-7.32-.01-.63-.19-1.06-.8-.98-.77,.09-1.2-.41-1.74-.74-.76-.47-1.35-1.21-2.26-1.46-.11-.33-.35-.49-.68-.55Z"/>
    <path class="cls-1" d="M20.61,27.26c-.07,.18-.11,.5-.2,.51-1.73,.25-3.45,0-5.15-.27-.44-.07-.4-.61-.27-1.02,.19-.42,.61-.77,.37-1.34-.41,.31-.53,.71-.55,1.17-.3,.4-.59,.86-1.16,.33l.02,.03c-.11-.31-.15-.7-.64-.62l.02,.03c.16-.56-.09-.85-.63-.94l.02,.03c.06-.73-.38-1.17-.93-1.55l.02,.03c-.03-.43-.2-.77-.63-.94l.03,.03c-.31-.74-.31-1.23,.73-1.18,1.15,.06,2.31,0,3.47,.02,.57,0,1.33-.16,1.08,.87-.03,.12-.06,.24,.07,.2,2.14-.68,1.67,1.67,2.68,2.3,.15,.1,.22,.34,.47,.21l-.03-.03c.03,.94,.62,1.55,1.23,2.16,0,0-.03-.02-.03-.02Zm-4.97-2.47c.04-.09,.1-.18,.1-.26,0-.05-.1-.11-.15-.16-.04,.09-.1,.18-.1,.26,0,.05,.1,.1,.16,.16Z"/>
    <path class="cls-1" d="M13.08,16.99q1.24-1.37,1.98,.4c.37,.88,.71,1.78,1.11,2.65,.37,.8,.11,1.15-.72,1.15-1.31,0-2.62,.02-3.93,0-1.09-.02-1.19-1.03-1.25-1.67-.16-1.6-.06-3.22-.07-4.84,0-.65,.28-.99,.93-.76,.66,.23,1.35,.46,1.93,.84,1.09,.71,.09,1.37-.14,2.05-.2,.3-.39,.6-.59,.91-.13,.11-.27,.23-.4,.34,.25,.2,.42,.1,.53-.16,.37-.19,.54-.52,.62-.9Z"/>
    <path class="cls-1" d="M27.27,9.41c.17,.13,.35,.27,.52,.4,.18,.24,.38,.47,.72,.48,.54,.75,1.37,1.16,2.1,1.67,1.28,.9,1.86,2.08,1.83,3.62-.02,1.55,0,3.1,0,4.67-.85-.02-.65-1.26-1.51-1.19,0,0,.03,.03,.03,.03,.11-.77-.39-1.17-.93-1.55l.02,.03c0-.45-.18-.79-.63-.94l.03,.03c-.52-.99-.61-1.86,.69-2.3,.49-.13,1-.25,1.5-.74-.76-.03-1.23,.19-1.65,.56-1.22,.39-2,.04-2.33-1.26-.33-1.28-1.1-2.42-1.31-3.86,.38,.15,.65,.25,.92,.35Z"/>
    <path class="cls-1" d="M19.43,25.16c-.25-.95-.93-1.66-1.42-2.47-.4-.68-.5-1.13,.52-1.12,1.82,0,3.63,0,5.45,0,.61,0,.99,.16,.88,.86l.03-.03c-.4,.32-.8,.64-.62,1.25l.03-.03c-1.14,.63-1.45,1.89-2.12,2.86-.42,.61-.84,.91-1.56,.78,0,0,.03,.02,.03,.02-.03-.94-.63-1.55-1.23-2.16l.03,.03Z"/>
    <path class="cls-1" d="M22.12,16.03c.59,1.5,1.63,2.75,2.45,4.12,.48,.81,.28,1.06-.61,1.05-1.71-.02-3.42-.06-5.12,0-1.32,.05-1.37-.4-.67-1.33,.17-.23,.24-.54,.36-.81,0,0-.03,.02-.03,.02,.58-.62,1.19-1.23,1.23-2.16l-.02,.03c.66-.15,.78-.71,.94-1.24l-.02,.03c.64-.58,1.07-.07,1.53,.3,0,0-.03-.03-.03-.03Z"/>
    <path class="cls-1" d="M18.51,32.43c.91-.68,1.33-1.72,1.94-2.62,.55-.81,.98-1.1,1.62-.07,.76,1.24,1.59,2.44,2.42,3.64,.64,.93,.33,1.21-.7,1.19-1.56-.04-3.12,0-4.68-.01-1.6-.01-1.62-.05-.84-1.46,.12-.21,.18-.45,.26-.68,0,0-.03,.03-.03,.03Z"/>
    <path class="cls-1" d="M22.46,12.69q-1.14,1.25-2.74-.6l.02,.03c-.36-1.01-1.06-1.8-1.63-2.68-.47-.72-.45-1.1,.53-1.1,1.76,0,3.51,.03,5.27,0,1.13-.02,1.03,.42,.53,1.14-.31,.44-.71,.85-.79,1.43l.03-.03c-.41,.18-.57,.53-.63,.94l.02-.03c-.4,.19-.58,.52-.63,.94l.02-.03Z"/>
    <path class="cls-1" d="M18.53,32.4c-.05,0-.12-.02-.15,.01q-1.49,1.52-2.28-.53c-.36-.94-.71-1.89-1.09-2.82-.27-.67-.03-.97,.65-.94,1.36,.06,2.72,.13,4.08,.21,.99,.05,.86,.48,.46,1.15-.58,.97-1.49,1.77-1.7,2.95,0,0,.03-.03,.03-.03Z"/>
    <path class="cls-1" d="M29.75,25.74q-1.61,1.19-2.49-.94-1.34-3.24,2.22-3.24c.15,0,.3,0,.45,0q2.07,0,1.29,1.77l.03-.03c-.45,.15-.6,.5-.63,.94l.02-.03c-.35,.09-.45,.31-.32,.64l.02-.03c-.59,.06-.71,.43-.63,.94l.03-.03Z"/>
    <path class="cls-1" d="M23.64,10.9c.33,.11,.41-.18,.57-.35,.43-.47,.58-1.46,1.2-1.41,.76,.06,.7,1.08,.98,1.68,.42,.91,.73,1.87,1.1,2.8,.32,.81,0,1.13-.82,1.08-.9-.06-1.81-.12-2.71-.16-1.96-.08-1.96-.07-1.52-1.85,0,0-.02,.03-.02,.03,.62-.04,.73-.42,.63-.94l-.02,.03c.59-.06,.72-.42,.63-.94l-.03,.03Z"/>
    <path class="cls-1" d="M19.71,12.09c-.02,.09-.08,.19-.07,.28,.1,.71,1.26,1.21,.68,1.92-.46,.56-1.43,.22-2.17,.26-3.47,.17-3.49,.15-2.23-3.12,.31-.81,.36-2.12,1.19-2.24,.74-.11,.99,1.23,1.56,1.84,.35,.37,.35,1.08,1.06,1.09,0,0-.02-.03-.02-.03Z"/>
    <path class="cls-1" d="M25.14,28.18c3.05-.11,2.85-.32,1.78,2.51-.07,.19-.13,.38-.23,.56-.44,.81-.34,2.24-1.26,2.35-.77,.09-1.06-1.29-1.64-1.97-.1-.11-.17-.25-.24-.38-.44-.88-1.37-1.51-1.42-2.58-.02-.33,.56-.41,3.01-.48Z"/>
    <path class="cls-1" d="M26.38,19.4c.82-.47,.9-1.38,1.15-2.12,.41-1.22,.89-1.61,1.92-.61,0,0-.03-.03-.03-.03-.09,.51,.15,.81,.63,.94,0,0-.02-.03-.02-.03,0,.7,.43,1.15,.93,1.55,0,0-.03-.03-.03-.03q1.08,2.13-1.43,2.13c-.76,0-1.52-.03-2.27,.01-.69,.04-1.03-.27-1.11-.92l-.03,.03c.41-.21,.49-.54,.32-.94l-.02,.03Z"/>
    <path class="cls-1" d="M18.52,19.07c-.09,0-.2-.04-.26,0-.57,.35-.55,1.58-1.34,1.3-.46-.16-.63-1.17-.9-1.81q-1.36-3.26,2.13-3.55c.5-.04,1-.07,1.49-.16,.75-.13,.93,.3,.98,.9,0,0,.02-.03,.02-.03-.68,.14-.78,.71-.94,1.24,0,0,.02-.03,.02-.03-.61,.6-1.19,1.22-1.23,2.16l.03-.02Z"/>
    <path class="cls-1" d="M26.11,20.28c-.7,.41-.98-.08-1.34-.57-.9-1.21-1.35-2.75-2.64-3.68,0,0,.03,.03,.03,.03-.13-.88,.05-1.35,1.13-1.17,1.08,.18,2.19,.19,3.29,.23,.97,.03,1.25,.42,.87,1.34-.4,.96-.93,1.88-1.07,2.94,0,0,.02-.03,.02-.03-.41,.21-.44,.55-.32,.94l.03-.03Z"/>
    <path class="cls-1" d="M24.85,22.42c.55-.09,1-.1,1.23,.61,.38,1.13,.88,2.23,1.36,3.33,.36,.82,.15,1.23-.77,1.28-1.1,.05-2.2,.17-3.3,.21-.41,.01-.98,.3-1.21-.21-.22-.45,.28-.81,.48-1.19,.51-.97,1.31-1.77,1.65-2.84,0,0-.03,.03-.03,.03,.38-.33,.8-.64,.62-1.25l-.03,.03Z"/>
    <path class="cls-1" d="M31.23,23.34c.58,.04,.53-.69,1.2-.84,0,2.06,0,4.09,0,6.11,0,.39-.15,.51-.54,.48-2.18-.18-3.04-1.51-2.14-3.35,0,0-.03,.03-.03,.03,.41-.18,.58-.52,.63-.94,0,0-.02,.03-.02,.03,.3-.11,.45-.31,.32-.64l-.02,.03c.46-.15,.73-.42,.63-.94l-.03,.03Z"/>
    <path class="cls-1" d="M15.86,33.85c-.11-.09-.22-.18-.33-.26-.57-.47-1.01-1.16-1.89-1.14,.13-.5-.28-.52-.58-.64-.39-.46-.83-.85-1.44-1-.1-.49-1.28-.63-.5-1.4,.93-.93,2.99-1.22,3.35-.44,.71,1.54,1.27,3.15,1.83,4.75,.08,.24-.28,.13-.46,.14Z"/>
    <path class="cls-1" d="M29.11,32.1c-.51,.16-.93,.44-1.23,.89-.55,.06-.82,.73-1.63,.64,.59-1.53,1.13-3.02,1.74-4.48,.26-.63,.84-.85,1.5-.62,.52,.18,1,.48,1.52,.62,1.19,.33,.94,.83,.22,1.43-.81,.36-1.52,.86-2.12,1.52Z"/>
    <path class="cls-1" d="M11.08,12.58c.16-.15,.32-.29,.48-.44,.8-.38,1.54-.85,2.1-1.54,.34-.01,.54-.24,.74-.47,.59-.36,1.17-.72,2.04-1.26-.68,1.75-1.23,3.22-1.82,4.69-.31,.79-.98,1.13-1.65,.64-.66-.48-2.19,0-1.89-1.61Z"/>
    <path class="cls-1" d="M13.65,26.64c-.18,1.09-1.89,2.46-2.95,2.39-.4-.03-.51-.29-.51-.6,0-1.76,.03-3.52,.02-5.28,0-.62,.44-.36,.73-.42,0,0-.03-.03-.03-.03-.11,.52,.07,.86,.63,.94,0,0-.02-.03-.02-.03-.05,.73,.41,1.15,.93,1.55l-.02-.03c.05,.42,.22,.76,.63,.94,0,0-.02-.03-.02-.03,.09,.33,.12,.72,.64,.62l-.02-.03Z"/>
    <path class="cls-1" d="M32.8,27.55c0-1.53,.03-3.06-.01-4.59-.02-.66,.37-1.01,.83-1.3,.26-.16,.58-.14,.83,.1,.46,.44,.24,.92,.08,1.39-.49,1.49-.99,2.97-1.49,4.46-.08-.02-.16-.04-.24-.06Z"/>
    <path class="cls-1" d="M33.04,15.21c.5,1.51,1.01,3.01,1.48,4.53,.17,.56,.43,1.28-.46,1.42-.75,.11-1.23-.42-1.25-1.16-.05-1.6-.01-3.2-.01-4.8,.08,0,.16,0,.24,0Z"/>
    <path class="cls-1" d="M9.44,27.38c-.49-1.47-.98-2.95-1.47-4.42-.18-.56-.31-1.21,.44-1.35,.75-.14,1.27,.37,1.29,1.12,.05,1.55,.02,3.11,.02,4.66-.09,0-.19,0-.28,0Z"/>
    <path class="cls-1" d="M9.74,15.42c0,1.46-.02,2.91,.01,4.37,.02,.64-.28,1.05-.79,1.34-.26,.15-.61,.12-.85-.09-.5-.43-.2-.91-.05-1.38,.48-1.43,.95-2.87,1.43-4.3,.08,.02,.17,.05,.25,.07Z"/>
  </g>
  <text class="cls-2" transform="translate(53.45 31.12)"><tspan x="0" y="0">QTUM</tspan></text>
</svg>