<?xml version="1.0" encoding="utf-8"?>
<!-- Generator: Adobe Illustrator 26.5.0, SVG Export Plug-In . SVG Version: 6.00 Build 0)  -->
<svg version="1.1" id="Layer_1" xmlns="http://www.w3.org/2000/svg" xmlns:xlink="http://www.w3.org/1999/xlink" x="0px" y="0px"
	 viewBox="0 0 635.9 201.7" style="enable-background:new 0 0 635.9 201.7;" xml:space="preserve">
<style type="text/css">
	.st0{fill:#FFFFFF;}
</style>
<g>
	<g>
		<polygon class="st0" points="209,32.7 209,190.4 42.5,190.4 42.5,177.9 195.8,177.9 195.8,32.7 		"/>
		<path class="st0" d="M19.9,11.3V169h166.5V11.3H19.9z M62.6,67.1c-7.5,0-13.7-5.8-13.7-13c0-7.2,6.1-13,13.7-13
			c7.6,0,13.7,5.8,13.7,13C76.3,61.4,70.2,67.1,62.6,67.1z M116.8,103.1H89.5V77.2h27.4V103.1z M143.6,139.1
			c-7.5,0-13.7-5.8-13.7-13c0-7.2,6.1-13,13.7-13c7.6,0,13.7,5.8,13.7,13C157.3,133.3,151.1,139.1,143.6,139.1z"/>
	</g>
	<g>
		<polygon class="st0" points="327.6,80.4 312.4,139.1 291.2,139.1 282.7,103.1 274,139.1 252.8,139.1 237.8,80.4 256.4,80.4 
			263.6,120.5 273.4,80.4 292.2,80.4 301.8,120.2 308.9,80.4 		"/>
		<polygon class="st0" points="352,93.4 352,103 371.8,103 371.8,115.5 352,115.5 352,126 374.4,126 374.4,139.1 334.9,139.1 
			334.9,80.4 374.4,80.4 374.4,93.4 		"/>
		<path class="st0" d="M431.1,114c-2.2-2.7-5.1-4.4-8.6-5.2c3.2-0.8,5.7-2.4,7.6-4.7c1.9-2.3,2.8-5.2,2.8-8.6
			c0-4.8-1.8-8.5-5.4-11.2c-3.7-2.7-8.5-4-14.9-4h-29.7V139h30.7c6.6,0,11.6-1.4,15.3-4.3c3.7-2.8,5.4-6.7,5.4-11.7
			C434.3,119.7,433.3,116.7,431.1,114L431.1,114z M400.2,93.3h8.7c4.3,0,6.5,1.8,6.5,5.2s-2.2,5.1-6.5,5.1h-8.7V93.3z M410.2,125.9
			h-10v-10.7h9.9c2.1,0,3.7,0.4,4.9,1.4c1.1,1,1.7,2.3,1.7,4.1C416.7,124.2,414.6,125.9,410.2,125.9z"/>
		<path class="st0" d="M447.5,134.8c-4.6-3.2-7.1-7.9-7.5-13.9h18.4c0.2,2,0.8,3.6,2,4.5s2.5,1.4,4.3,1.4c1.6,0,2.9-0.4,3.9-1.2
			c1-0.7,1.5-1.8,1.5-3.1c0-1.7-0.8-3-2.5-4s-4.5-2-8.2-3.2c-4-1.2-7.3-2.5-9.7-3.7c-2.4-1.2-4.7-2.9-6.5-5.2
			c-1.9-2.3-2.8-5.3-2.8-9.1s1-7,3-9.7s4.8-4.7,8.2-6.1s7.5-2,11.9-2c7.2,0,12.9,1.6,17.2,4.8s6.6,7.6,6.9,13.4h-18.7
			c-0.1-1.8-0.7-3.1-1.7-4c-1.1-0.9-2.4-1.3-4.2-1.3c-1.3,0-2.3,0.4-3.2,1.1c-0.8,0.7-1.2,1.8-1.2,3.1c0,1.1,0.5,2,1.4,2.8
			s2.1,1.5,3.4,2c1.3,0.5,3.4,1.3,6,2.2c3.9,1.2,7.1,2.6,9.7,3.8c2.5,1.2,4.8,3,6.6,5.2c1.8,2.2,2.8,5.1,2.8,8.5s-0.9,6.7-2.8,9.4
			c-1.9,2.8-4.5,5-8,6.6c-3.5,1.6-7.6,2.4-12.4,2.4C458,139.6,452.1,138,447.5,134.8L447.5,134.8z"/>
		<rect x="496.3" y="80.4" class="st0" width="17.2" height="12.9"/>
		<rect x="496.3" y="95.8" class="st0" width="17.2" height="43.2"/>
		<polygon class="st0" points="570,80.4 570,93.3 553.5,93.3 553.5,139.1 536.2,139.1 536.2,93.3 519.9,93.3 519.9,80.4 		"/>
		<polygon class="st0" points="593.6,93.4 593.6,103 613.4,103 613.4,115.5 593.6,115.5 593.6,126 616,126 616,139.1 576.4,139.1 
			576.4,80.4 616,80.4 616,93.4 		"/>
	</g>
</g>
</svg>
