<?xml version="1.0" encoding="utf-8"?>
<!-- Generator: Adobe Illustrator 26.5.0, SVG Export Plug-In . SVG Version: 6.00 Build 0)  -->
<svg version="1.1" id="Layer_1" xmlns="http://www.w3.org/2000/svg" xmlns:xlink="http://www.w3.org/1999/xlink" x="0px" y="0px"
	 viewBox="0 0 635.9 201.7" style="enable-background:new 0 0 635.9 201.7;" xml:space="preserve">
<style type="text/css">
	.st0{fill:#01203a;}
</style>
<g>
	<polygon points="201.7,24.1 201.7,201.7 24.1,201.7 24.1,187.6 187.6,187.6 187.6,24.1 	"/>
	<path class="st0" d="M0,0v177.6h177.6V0H0z M45.6,62.9c-8,0-14.6-6.5-14.6-14.6s6.5-14.6,14.6-14.6s14.6,6.5,14.6,14.6
		S53.7,62.9,45.6,62.9z M103.4,103.4H74.2V74.2h29.2V103.4z M132,143.9c-8,0-14.6-6.5-14.6-14.6s6.5-14.6,14.6-14.6
		c8.1,0,14.6,6.5,14.6,14.6S140,143.9,132,143.9z"/>
</g>
<g>
	<polygon class="st0" points="328.2,77.8 312,143.9 289.4,143.9 280.3,103.4 271.1,143.9 248.5,143.9 232.5,77.8 252.3,77.8 
		260,123 270.4,77.8 290.5,77.8 300.7,122.6 308.3,77.8 	"/>
	<polygon class="st0" points="354.3,92.5 354.3,103.3 375.4,103.3 375.4,117.3 354.3,117.3 354.3,129.2 378.2,129.2 378.2,143.9 
		336,143.9 336,77.8 378.2,77.8 378.2,92.5 	"/>
	<path class="st0" d="M438.7,115.7c-2.3-3-5.4-4.9-9.2-5.8c3.4-0.9,6.1-2.7,8.1-5.3c2-2.6,3-5.8,3-9.7c0-5.4-1.9-9.6-5.8-12.6
		s-9.1-4.5-15.9-4.5h-31.7v66H420c7,0,12.4-1.6,16.3-4.8c3.9-3.2,5.8-7.6,5.8-13.2C442.1,122.1,441,118.7,438.7,115.7L438.7,115.7z
		 M405.7,92.4h9.3c4.6,0,6.9,2,6.9,5.9s-2.3,5.7-6.9,5.7h-9.3V92.4z M416.4,129.1h-10.7v-12h10.6c2.2,0,4,0.5,5.2,1.6
		c1.2,1.1,1.8,2.6,1.8,4.6C423.3,127.1,421,129.1,416.4,129.1z"/>
	<path d="M456.1,139.1c-4.9-3.6-7.6-8.9-8-15.7h19.6c0.2,2.3,0.9,4,2.1,5.1s2.7,1.6,4.6,1.6c1.7,0,3.1-0.4,4.2-1.3
		c1.1-0.8,1.6-2,1.6-3.5c0-1.9-0.9-3.4-2.7-4.5c-1.8-1.1-4.8-2.2-8.8-3.6c-4.3-1.4-7.8-2.8-10.4-4.2c-2.6-1.3-5-3.3-6.9-5.9
		c-2-2.6-3-6-3-10.2s1.1-7.9,3.2-10.9c2.1-3,5.1-5.3,8.8-6.9s8-2.3,12.7-2.3c7.7,0,13.8,1.8,18.4,5.4s7,8.6,7.4,15.1h-20
		c-0.1-2-0.7-3.5-1.8-4.5c-1.2-1-2.6-1.5-4.5-1.5c-1.4,0-2.5,0.4-3.4,1.2c-0.9,0.8-1.3,2-1.3,3.5c0,1.2,0.5,2.3,1.5,3.2
		c1,0.9,2.2,1.7,3.6,2.3s3.6,1.5,6.4,2.5c4.2,1.4,7.6,2.9,10.4,4.3c2.7,1.4,5.1,3.4,7,5.9s3,5.7,3,9.6s-1,7.5-3,10.6
		s-4.8,5.6-8.5,7.4c-3.7,1.8-8.1,2.7-13.2,2.7C467.4,144.5,461.1,142.7,456.1,139.1L456.1,139.1z"/>
	<rect x="508.2" y="77.8" width="18.4" height="14.5"/>
	<rect x="508.2" y="95.2" width="18.4" height="48.6"/>
	<polygon points="586.8,77.8 586.8,92.4 569.2,92.4 569.2,143.9 550.8,143.9 550.8,92.4 533.4,92.4 533.4,77.8 	"/>
	<polygon points="612,92.5 612,103.3 633.1,103.3 633.1,117.3 612,117.3 612,129.2 635.9,129.2 635.9,143.9 593.7,143.9 593.7,77.8 
		635.9,77.8 635.9,92.5 	"/>
</g>
</svg>
